<?xml version="1.0" encoding="UTF-8"?>
<svg xmlns="http://www.w3.org/2000/svg" viewBox="-8 -8 16 16" role="img" aria-label="Pilot death debris shell right">
  <defs>
    <linearGradient id="shellBodyGrad" x1="0.10" y1="0.08" x2="0.92" y2="0.92">
      <stop offset="0" stop-color="var(--slot-primary, #00f0ff)" stop-opacity="0.34"/>
      <stop offset="0.44" stop-color="var(--slot-secondary, #162233)" stop-opacity="1"/>
      <stop offset="1" stop-color="#030a12" stop-opacity="1"/>
    </linearGradient>
    <linearGradient id="panelGlow" x1="0.05" y1="0.35" x2="0.98" y2="0.64">
      <stop offset="0" stop-color="var(--slot-primary, #00f0ff)" stop-opacity="0.30"/>
      <stop offset="1" stop-color="var(--slot-primary, #00f0ff)" stop-opacity="0.06"/>
    </linearGradient>
  </defs>

  <g id="visual">
    <path
      d="M -4.9 -5.2 L 2.0 -5.4 L 4.9 -1.6 L 5.6 1.5 L 3.8 4.1 L 1.2 5.6 L -2.0 5.4 L -4.7 4.9 L -4.2 0.2 L -4.7 -2.1 Z"
      fill="url(#shellBodyGrad)"
      stroke="var(--slot-stroke, #cfe8ff)"
      stroke-width="1.05"
      stroke-linejoin="round"
      stroke-linecap="round"
    />
    <path
      d="M -3.9 -3.9 L 1.4 -4.0 L 3.9 -1.0 L 4.5 1.2 L 3.1 3.3 L 1.1 4.4 L -1.4 4.2 L -3.8 3.7 L -3.5 0.3 L -3.8 -1.8 Z"
      fill="url(#panelGlow)"
      opacity="0.86"
    />
  </g>

  <path
    id="collider"
    d="M -4.9 -5.2 L 2.0 -5.4 L 4.9 -1.6 L 5.6 1.5 L 3.8 4.1 L 1.2 5.6 L -2.0 5.4 L -4.7 4.9 L -4.2 0.2 L -4.7 -2.1 Z"
    fill="none"
    stroke="none"
  />
</svg>
