<?xml version="1.0" encoding="UTF-8"?>
<svg xmlns="http://www.w3.org/2000/svg" viewBox="-8 -8 16 16" role="img" aria-label="Pilot death debris shell left">
  <defs>
    <linearGradient id="shellBodyGrad" x1="0.12" y1="0.06" x2="0.92" y2="0.94">
      <stop offset="0" stop-color="var(--slot-primary, #00f0ff)" stop-opacity="0.34"/>
      <stop offset="0.46" stop-color="var(--slot-secondary, #141d2a)" stop-opacity="1"/>
      <stop offset="1" stop-color="#030a12" stop-opacity="1"/>
    </linearGradient>
    <linearGradient id="panelGlow" x1="0" y1="0.4" x2="1" y2="0.55">
      <stop offset="0" stop-color="var(--slot-primary, #00f0ff)" stop-opacity="0.30"/>
      <stop offset="1" stop-color="var(--slot-primary, #00f0ff)" stop-opacity="0.05"/>
    </linearGradient>
  </defs>

  <g id="visual">
    <path
      d="M -5.8 -4.8 L 4.7 -5.3 L 4.1 -0.3 L 4.8 4.8 L -1.8 5.3 L -4.0 3.6 L -6.1 0.3 L -6.1 -3.5 Z"
      fill="url(#shellBodyGrad)"
      stroke="var(--slot-stroke, #cfe8ff)"
      stroke-width="1.05"
      stroke-linejoin="round"
      stroke-linecap="round"
    />
    <path
      d="M -4.8 -3.6 L 3.5 -4.0 L 3.0 -0.5 L 3.5 3.6 L -1.5 3.9 L -3.1 2.8 L -4.7 0.4 L -4.7 -2.3 Z"
      fill="url(#panelGlow)"
      opacity="0.85"
    />
    <path
      d="M -2.6 -2.4 L -1.5 -0.9 L -2.1 0.4 L -0.9 1.9 L -1.7 3.2"
      fill="none"
      stroke="#02060c"
      stroke-width="0.35"
      stroke-linecap="round"
      stroke-linejoin="round"
      opacity="0.95"
    />
    <path
      d="M -2.6 -2.4 L -1.5 -0.9 L -2.1 0.4 L -0.9 1.9 L -1.7 3.2"
      fill="none"
      stroke="#000000"
      stroke-width="0.16"
      stroke-linecap="round"
      stroke-linejoin="round"
      opacity="0.88"
    />
  </g>

  <path
    id="collider"
    d="M -5.8 -4.8 L 4.7 -5.3 L 4.1 -0.3 L 4.8 4.8 L -1.8 5.3 L -4.0 3.6 L -6.1 0.3 L -6.1 -3.5 Z"
    fill="none"
    stroke="none"
  />
</svg>
