<svg xmlns="http://www.w3.org/2000/svg" viewBox="0 0 1200 800" fill="none">
  <defs>
    <linearGradient id="panelBase" x1="0" y1="120" x2="0" y2="690" gradientUnits="userSpaceOnUse">
      <stop offset="0" stop-color="#15be77" />
      <stop offset="0.52" stop-color="#0f945f" />
      <stop offset="1" stop-color="#0a6f47" />
    </linearGradient>
    <linearGradient id="panelDepth" x1="120" y1="400" x2="1080" y2="400" gradientUnits="userSpaceOnUse">
      <stop offset="0" stop-color="#07402a" stop-opacity="0.5" />
      <stop offset="0.28" stop-color="#000000" stop-opacity="0" />
      <stop offset="0.74" stop-color="#000000" stop-opacity="0" />
      <stop offset="1" stop-color="#07402a" stop-opacity="0.5" />
    </linearGradient>
    <linearGradient id="panelSheen" x1="0" y1="120" x2="0" y2="690" gradientUnits="userSpaceOnUse">
      <stop offset="0" stop-color="#d7ffe9" stop-opacity="0.34" />
      <stop offset="0.2" stop-color="#c1ffde" stop-opacity="0.14" />
      <stop offset="0.6" stop-color="#9ce6c4" stop-opacity="0" />
      <stop offset="1" stop-color="#9ce6c4" stop-opacity="0" />
    </linearGradient>
    <pattern id="scanLines" width="12" height="12" patternUnits="userSpaceOnUse">
      <path d="M0 2H12M0 8H12" stroke="#ecfff3" stroke-opacity="0.1" stroke-width="1" />
      <path d="M2 0V12M8 0V12" stroke="#bfffdc" stroke-opacity="0.05" stroke-width="1" />
    </pattern>
    <filter id="edgeGlow" x="-40" y="-40" width="1280" height="880" filterUnits="userSpaceOnUse" color-interpolation-filters="sRGB">
      <feDropShadow dx="0" dy="0" stdDeviation="2.2" flood-color="#7effc4" flood-opacity="0.8" />
      <feDropShadow dx="0" dy="0" stdDeviation="6" flood-color="#64f1b2" flood-opacity="0.28" />
    </filter>
    <path id="bunkersHolesCutout" fill-rule="evenodd" d="M150 145H410V345H150z M248 245A20 20 0 1 0 208 245A20 20 0 1 0 248 245z M347 285A15 15 0 1 0 317 285A15 15 0 1 0 347 285z M790 145H1050V345H790z M938 225A18 18 0 1 0 902 225A18 18 0 1 0 938 225z M858 305A16 16 0 1 0 826 305A16 16 0 1 0 858 305z M150 455H410V655H150z M323 515A17 17 0 1 0 289 515A17 17 0 1 0 323 515z M248 575A20 20 0 1 0 208 575A20 20 0 1 0 248 575z M790 455H1050V655H790z M913 555A19 19 0 1 0 875 555A19 19 0 1 0 913 555z M1012 515A14 14 0 1 0 984 515A14 14 0 1 0 1012 515z" />
  </defs>

  <g filter="url(#edgeGlow)">
    <use href="#bunkersHolesCutout" fill="url(#panelBase)" />
    <use href="#bunkersHolesCutout" fill="url(#panelDepth)" />
    <use href="#bunkersHolesCutout" fill="url(#panelSheen)" />
    <use href="#bunkersHolesCutout" fill="url(#scanLines)" opacity="0.5" />

    <rect x="251.5" y="345" width="57" height="110" fill="url(#panelBase)" />
    <rect x="251.5" y="345" width="57" height="110" fill="url(#panelDepth)" />
    <rect x="251.5" y="345" width="57" height="110" fill="url(#panelSheen)" />
    <rect x="251.5" y="345" width="57" height="110" fill="url(#scanLines)" opacity="0.5" />
  </g>

  <g stroke-linecap="round">
    <g stroke="#9affd0" stroke-width="2.25">
      <rect x="150" y="145" width="260" height="200" />
      <rect x="790" y="145" width="260" height="200" />
      <rect x="150" y="455" width="260" height="200" />
      <rect x="790" y="455" width="260" height="200" />
      <rect x="251.5" y="345" width="57" height="110" />
    </g>
    <g stroke="#d8ffee" stroke-opacity="0.42" stroke-width="1">
      <rect x="156" y="151" width="248" height="188" />
      <rect x="796" y="151" width="248" height="188" />
      <rect x="156" y="461" width="248" height="188" />
      <rect x="796" y="461" width="248" height="188" />
      <rect x="256.5" y="350" width="47" height="100" />
    </g>
    <g stroke="#83ffca" stroke-opacity="0.72" fill="none">
      <circle cx="228" cy="245" r="20" />
      <circle cx="332" cy="285" r="15" />
      <circle cx="920" cy="225" r="18" />
      <circle cx="842" cy="305" r="16" />
      <circle cx="306" cy="515" r="17" />
      <circle cx="228" cy="575" r="20" />
      <circle cx="894" cy="555" r="19" />
      <circle cx="998" cy="515" r="14" />
    </g>
    <g stroke="#062c1c" stroke-opacity="0.7" stroke-width="1.1">
      <circle cx="228" cy="245" r="16" />
      <circle cx="332" cy="285" r="12" />
      <circle cx="920" cy="225" r="14.5" />
      <circle cx="842" cy="305" r="12.5" />
      <circle cx="306" cy="515" r="13.5" />
      <circle cx="228" cy="575" r="16" />
      <circle cx="894" cy="555" r="15.5" />
      <circle cx="998" cy="515" r="10.5" />
    </g>
  </g>

  <g fill="#d6ffee" fill-opacity="0.36">
    <rect x="164" y="154" width="58" height="4" />
    <rect x="804" y="154" width="58" height="4" />
    <rect x="164" y="464" width="58" height="4" />
    <rect x="804" y="464" width="58" height="4" />
  </g>
</svg>
