<svg xmlns="http://www.w3.org/2000/svg" viewBox="-20 -20 40 40" role="img" aria-label="Pilot (ship-inspired, hi-fi)">
  <defs>
    <style>
      .slot-secondary { fill: var(--slot-secondary, #ffffff); }
      .slot-stroke { stroke: var(--slot-stroke, #ffffff); }
      .stop-primary { stop-color: var(--slot-primary, #00f0ff); }
      .stop-dark { stop-color: #07121a; }
    </style>

    <!-- Suit + panel gradients (match ship palette) -->
    <linearGradient id="suitGrad" x1="0.05" y1="0.15" x2="0.95" y2="0.85">
      <stop offset="0" class="stop-primary" stop-opacity="1"/>
      <stop offset="0.58" class="stop-primary" stop-opacity="1"/>
      <stop offset="1" class="stop-dark" stop-opacity="1"/>
    </linearGradient>

    <linearGradient id="panelGrad" x1="0" y1="1" x2="1" y2="0">
      <stop offset="0" class="stop-dark" stop-opacity="1"/>
      <stop offset="0.42" class="stop-primary" stop-opacity="0.85"/>
      <stop offset="1" class="stop-primary" stop-opacity="1"/>
    </linearGradient>

    <radialGradient id="visorGlow" cx="62%" cy="48%" r="52%">
      <stop offset="0" class="stop-primary" stop-opacity="0.95"/>
      <stop offset="55%" class="stop-primary" stop-opacity="0.35"/>
      <stop offset="100%" class="stop-dark" stop-opacity="1"/>
    </radialGradient>

    <radialGradient id="thrusterGlow" cx="25%" cy="50%" r="60%">
      <stop offset="0" class="stop-primary" stop-opacity="1"/>
      <stop offset="45%" class="stop-primary" stop-opacity="0.55"/>
      <stop offset="100%" class="stop-primary" stop-opacity="0"/>
    </radialGradient>

    <filter id="softShadow" x="-30%" y="-30%" width="160%" height="160%">
      <feGaussianBlur in="SourceAlpha" stdDeviation="0.55" result="b"/>
      <feOffset in="b" dx="0.35" dy="0.45" result="o"/>
      <feColorMatrix in="o" type="matrix"
        values="0 0 0 0 0
                0 0 0 0 0
                0 0 0 0 0
                0 0 0 0.28 0" result="s"/>
      <feMerge>
        <feMergeNode in="s"/>
        <feMergeNode in="SourceGraphic"/>
      </feMerge>
    </filter>
  </defs>

  <g id="visual" filter="url(#softShadow)">
    <!-- Back thruster glow -->
    <circle cx="-13.2" cy="0" r="7.6" fill="url(#thrusterGlow)"/>

    <!-- Backpack (angular, ship-wing inspired) -->
    <path
      d="M -16.0 -5.6 L -11.2 -8.6 L -9.0 -2.6 L -9.0 2.6 L -11.2 8.6 L -16.0 5.6 L -17.2 0 Z"
      fill="#07121a"
      opacity="0.94"
      class="slot-stroke"
      stroke-width="0.9"
      stroke-linejoin="round"
    />

    <!-- Backpack inner cut + highlight -->
    <path d="M -14.6 -4.5 L -11.4 -6.4 L -10.0 -2.0 L -10.0 2.0 L -11.4 6.4 L -14.6 4.5 L -15.4 0 Z"
      fill="url(#panelGrad)" opacity="0.9"/>

    <!-- Main suit body (capsule + hard edges like hull) -->
    <path
      d="M -9.6 -7.2
         L 2.8 -7.2
         Q 5.0 -7.2 6.6 -5.6
         L 8.4 -3.8
         Q 9.6 -2.6 9.6 -0.8
         L 9.6 0.8
         Q 9.6 2.6 8.4 3.8
         L 6.6 5.6
         Q 5.0 7.2 2.8 7.2
         L -8.0 7.2
         Q -10.2 7.2 -11.2 5.2
         L -12.6 2.4
         Q -13.2 1.2 -13.2 0
         Q -13.2 -1.2 -12.6 -2.4
         L -11.2 -5.2
         Q -10.2 -7.2 -9.6 -7.2 Z"
      fill="url(#suitGrad)"
      class="slot-stroke"
      stroke-width="1.05"
      stroke-linejoin="round"
    />

    <!-- Suit rim (white-ish like ship outline) -->
    <path
      d="M -9.1 -6.2
         L 2.7 -6.2
         Q 4.6 -6.2 5.9 -4.9
         L 7.5 -3.3
         Q 8.5 -2.3 8.5 -0.9
         L 8.5 0.9
         Q 8.5 2.3 7.5 3.3
         L 5.9 4.9
         Q 4.6 6.2 2.7 6.2
         L -7.9 6.2
         Q -9.5 6.2 -10.2 4.8
         L -11.4 2.4
         Q -11.9 1.2 -11.9 0
         Q -11.9 -1.2 -11.4 -2.4
         L -10.2 -4.8
         Q -9.5 -6.2 -9.1 -6.2 Z"
      fill="none"
      class="slot-secondary slot-stroke"
      stroke-width="0.45"
      opacity="0.65"
      stroke-linejoin="round"
    />

    <!-- Chest core (diamond like ship) -->
    <g opacity="0.95">
      <polygon points="-2.8,-3.0 1.0,0 -2.8,3.0 -6.2,0" fill="var(--slot-primary, #00f0ff)"/>
      <polygon points="-3.6,-1.8 -1.2,0 -3.6,1.8 -5.6,0" fill="#07121a" opacity="0.28"/>
      <path d="M -2.8 -3.0 L 1.0 0 L -2.8 3.0" fill="none" class="slot-secondary" opacity="0.26" stroke="var(--slot-secondary, #ffffff)" stroke-width="0.35"/>
    </g>

    <!-- Panel lines (subtle, high-fi) -->
    <path d="M -7.6 -4.2 L 4.8 -4.2" stroke="#07121a" stroke-width="0.55" opacity="0.22"/>
    <path d="M -8.5 4.2 L 4.0 4.2" stroke="#07121a" stroke-width="0.55" opacity="0.18"/>
    <path d="M -0.8 -6.8 L -0.8 6.8" stroke="#07121a" stroke-width="0.45" opacity="0.16"/>

    <!-- Helmet outer (right) -->
    <circle cx="13.2" cy="0" r="6.5"
      fill="#07121a" opacity="0.96"
      class="slot-stroke" stroke-width="1.05"/>

    <!-- Helmet rim (ship-like bright edge) -->
    <circle cx="13.2" cy="0" r="5.6"
      fill="none"
      class="slot-secondary slot-stroke"
      stroke="var(--slot-secondary, #ffffff)"
      stroke-width="0.7"
      opacity="0.9"/>

    <!-- Visor -->
    <path
      d="M 9.6 -3.3
         Q 12.4 -5.2 15.2 -4.0
         Q 17.8 -2.8 17.8 0
         Q 17.8 2.8 15.2 4.0
         Q 12.4 5.2 9.6 3.3
         Q 10.8 0 9.6 -3.3 Z"
      fill="url(#visorGlow)"
    />

    <!-- Visor specular + micro highlights -->
    <path
      d="M 11.0 -2.4
         Q 13.2 -3.8 15.2 -3.0
         Q 16.6 -2.4 17.0 -1.0
         Q 15.4 -1.2 14.0 -0.4
         Q 12.2 0.6 11.2 2.0
         Q 11.8 0 11.0 -2.4 Z"
      fill="var(--slot-secondary, #ffffff)"
      opacity="0.14"
    />
    <circle cx="16.0" cy="-1.4" r="0.55" fill="var(--slot-secondary, #ffffff)" opacity="0.22"/>
    <circle cx="15.4" cy="1.6" r="0.40" fill="var(--slot-secondary, #ffffff)" opacity="0.18"/>

    <!-- Tiny status light (pink-ish tip like ship) -->
    <circle cx="18.3" cy="0" r="0.85" fill="#ff2b6f" opacity="0.9"/>

    <!-- Feet / shadow (gives grounding while dashing) -->
    <path d="M -6.6 7.2 L 2.8 7.2 Q 4.2 7.2 4.8 8.4 L 5.3 9.5 L -8.1 9.5 L -7.4 8.2 Q -7.1 7.2 -6.6 7.2 Z"
      fill="#000" opacity="0.18"/>
    <path d="M -4.4 7.2 L -2.0 7.2 L -2.4 9.5 L -5.2 9.5 Z" fill="#07121a" opacity="0.28"/>
    <path d="M 0.4 7.2 L 2.6 7.2 L 2.0 9.5 L -0.4 9.5 Z" fill="#07121a" opacity="0.24"/>
  </g>

  <!-- Collider(s): keep a single canonical id="collider" for your extractor -->
  <path
    id="collider"
    d="M -17.2 0
       L -16.0 -5.6
       L -11.2 -8.6
       L -9.6 -7.2
       L 2.8 -7.2
       Q 5.0 -7.2 6.6 -5.6
       L 8.4 -3.8
       Q 9.6 -2.6 9.6 -0.8
       L 9.6 -3.3
       Q 12.4 -5.2 15.2 -4.0
       Q 17.8 -2.8 17.8 0
       Q 17.8 2.8 15.2 4.0
       Q 12.4 5.2 9.6 3.3
       L 9.6 0.8
       Q 9.6 2.6 8.4 3.8
       L 6.6 5.6
       Q 5.0 7.2 2.8 7.2
       L 4.8 8.4
       L 5.3 9.5
       L -8.1 9.5
       L -11.2 8.6
       L -16.0 5.6
       Z"
    fill="none" stroke="none"
  />

  <!-- Optional debug colliders (hidden by default) -->
  <g id="colliders" display="none">
    <path id="collider-body" d="M -9.6 -7.2 L 2.8 -7.2 Q 5.0 -7.2 6.6 -5.6 L 8.4 -3.8 Q 9.6 -2.6 9.6 -0.8 L 9.6 0.8 Q 9.6 2.6 8.4 3.8 L 6.6 5.6 Q 5.0 7.2 2.8 7.2 L -8.0 7.2 Q -10.2 7.2 -11.2 5.2 L -12.6 2.4 Q -13.2 1.2 -13.2 0 Q -13.2 -1.2 -12.6 -2.4 L -11.2 -5.2 Q -10.2 -7.2 -9.6 -7.2 Z" fill="none" stroke="#ff00ff" stroke-width="0.4"/>
    <circle id="collider-helmet" cx="13.2" cy="0" r="6.5" fill="none" stroke="#00ff00" stroke-width="0.4"/>
    <path id="collider-pack" d="M -16.0 -5.6 L -11.2 -8.6 L -9.0 -2.6 L -9.0 2.6 L -11.2 8.6 L -16.0 5.6 L -17.2 0 Z" fill="none" stroke="#00ffff" stroke-width="0.4"/>
  </g>
</svg>
